<mxfile host="app.diagrams.net" modified="2023-12-19T17:23:37.516Z" agent="Mozilla/5.0 (X11; Linux x86_64) AppleWebKit/537.36 (KHTML, like Gecko) Chrome/119.0.0.0 Safari/537.36" version="22.1.11" etag="inT53X2Y2BcBGRSObeI4" type="github">
  <diagram name="Page-1" id="ykIFIgacjcJZdcJNP5I2">
    <mxGraphModel>
      <root>
        <mxCell id="0" />
        <mxCell id="1" parent="0" />
      </root>
    </mxGraphModel>
  </diagram>
</mxfile>
